<?xml version="1.0" standalone="no"?>
<!DOCTYPE svg PUBLIC "-//W3C//DTD SVG 20010904//EN"
 "http://www.w3.org/TR/2001/REC-SVG-20010904/DTD/svg10.dtd">
<svg version="1.0" xmlns="http://www.w3.org/2000/svg"
 width="500.000000pt" height="500.000000pt" viewBox="0 0 500.000000 500.000000"
 preserveAspectRatio="xMidYMid meet">

<g transform="translate(0.000000,500.000000) scale(0.100000,-0.100000)"
fill="#000000" stroke="none">
<path d="M2540 4768 l-20 -33 -147 -1 c-124 0 -157 -4 -203 -21 -85 -32 -177
-80 -178 -95 -1 -7 -7 -33 -14 -58 l-13 -46 -33 23 c-25 16 -42 21 -65 16 -37
-7 -57 -20 -57 -38 0 -7 -33 -35 -73 -63 -137 -95 -162 -145 -216 -444 -43
-234 -48 -245 -192 -440 -113 -152 -146 -219 -158 -328 -11 -92 -22 -261 -14
-220 29 165 114 280 334 453 103 81 189 165 246 239 20 26 38 46 40 44 2 -1
-4 -19 -12 -39 -16 -38 -21 -147 -7 -147 4 0 14 6 20 12 7 7 44 18 83 25 41 6
80 19 93 30 11 11 34 25 49 31 l28 12 -3 -65 c-3 -85 15 -108 84 -103 37 2 50
-1 61 -15 12 -18 16 -18 49 -4 44 18 68 53 75 106 l5 40 27 -20 c89 -65 162
-26 164 88 0 36 -5 50 -22 65 -32 25 -8 23 38 -4 32 -18 42 -20 54 -9 23 18
10 79 -25 119 -15 18 -28 37 -28 42 0 5 -25 28 -55 50 -30 22 -60 50 -66 62
-16 30 72 -40 132 -105 43 -47 49 -50 93 -50 26 1 53 7 61 13 24 20 84 2 134
-40 25 -21 60 -50 76 -64 l30 -25 -33 -1 c-65 0 -88 -31 -61 -83 9 -16 3 -14
-20 9 -37 38 -77 48 -108 28 -48 -30 -12 -124 47 -124 16 0 32 5 35 10 3 6 1
10 -6 10 -7 0 -5 8 6 20 20 22 45 27 45 9 0 -7 16 -27 35 -45 l36 -33 -28 -7
c-46 -11 -90 -42 -139 -99 -34 -40 -44 -59 -39 -75 6 -18 15 -20 81 -20 48 0
73 4 69 10 -3 6 -32 10 -63 11 l-57 1 70 33 c39 19 98 41 133 51 58 16 64 16
79 1 24 -24 9 -46 -51 -72 -30 -13 -57 -28 -60 -34 -13 -21 25 -41 78 -41 88
0 109 -47 49 -112 -59 -63 -217 -103 -505 -128 -216 -19 -264 1 -369 157 -27
39 -64 84 -83 98 -20 15 -46 45 -60 68 -45 76 -158 167 -207 167 -9 0 -28 -9
-43 -21 -21 -17 -26 -29 -26 -65 0 -51 15 -88 32 -78 7 5 8 2 4 -5 -10 -15 23
-53 38 -44 6 3 8 2 3 -2 -4 -5 0 -16 9 -26 15 -17 15 -21 -5 -52 -26 -43 -108
-120 -149 -141 -18 -9 -32 -19 -32 -22 0 -8 42 17 97 57 28 21 65 60 82 87
l32 48 66 -33 c68 -34 111 -41 131 -21 17 17 20 11 31 -62 24 -147 4 -298 -54
-408 -19 -37 -81 -124 -136 -192 -141 -175 -248 -315 -285 -378 l-32 -53 -13
56 c-7 30 -14 53 -16 51 -3 -3 1 -30 8 -60 10 -46 10 -63 -1 -97 -8 -22 -17
-42 -22 -45 -5 -3 -30 7 -56 22 -131 76 -179 147 -201 299 -6 44 -9 51 -10 25
0 -20 6 -62 14 -93 8 -32 15 -61 15 -65 -2 -20 -34 58 -50 121 -10 40 -19 62
-19 50 -1 -33 34 -138 63 -186 33 -58 110 -126 181 -163 l57 -29 -6 -50 c-4
-47 -4 -48 6 -15 5 19 13 42 16 50 3 8 4 18 4 23 -4 17 60 141 108 211 28 41
121 161 206 268 85 106 168 220 185 253 68 139 77 328 23 525 l-7 25 28 -25
c15 -14 45 -52 68 -84 69 -101 104 -134 164 -153 52 -16 64 -16 241 1 103 9
202 20 219 23 l33 5 -14 -33 c-7 -19 -17 -68 -20 -109 -4 -41 -14 -104 -23
-140 -18 -75 -151 -420 -162 -420 -15 0 -212 80 -236 96 -34 22 -44 43 -55
111 -10 59 -35 107 -50 98 -15 -9 -12 -141 4 -180 22 -53 56 -70 199 -100 96
-20 159 -52 257 -131 96 -78 153 -148 175 -215 33 -97 40 -281 20 -489 -2 -25
-2 -38 1 -30 3 8 46 99 96 202 67 138 91 200 94 235 l3 48 -9 -50 c-5 -28 -45
-122 -89 -210 l-80 -160 6 125 c10 214 -20 352 -96 449 -17 21 -75 73 -130
116 l-100 78 18 36 c10 20 37 85 61 146 38 95 45 106 52 85 6 -19 7 -16 3 13
-2 22 4 61 16 95 11 31 26 110 34 175 9 82 19 124 30 137 10 11 45 28 79 39
33 11 69 23 79 27 12 4 1 -20 -33 -73 -53 -83 -100 -199 -99 -243 0 -14 7 1
15 33 7 31 27 84 44 118 31 64 128 209 139 209 4 0 14 13 24 29 19 33 22 95 7
203 -5 40 -14 136 -18 214 -6 113 -12 149 -30 184 -12 24 -20 45 -19 46 1 0
21 4 44 8 40 6 42 4 65 -31 13 -20 29 -51 36 -68 l12 -30 -6 30 c-3 17 -16 46
-29 66 -21 33 -22 38 -8 52 15 15 8 20 -77 61 -51 25 -108 49 -128 52 -34 7
-34 7 34 29 38 12 96 38 129 58 33 21 74 37 90 37 29 1 29 1 10 16 -11 8 -51
24 -88 36 -67 20 -136 21 -180 3 -13 -6 -16 -3 -11 9 3 9 10 13 16 10 5 -3 17
1 26 9 9 8 33 20 52 26 l35 11 -37 -6 c-37 -5 -38 -4 -28 21 24 63 2 178 -47
243 -29 39 -87 77 -163 108 -45 18 -56 27 -63 54 -10 39 -76 130 -94 130 -7 0
-22 -15 -33 -32z m74 -25 c30 -39 36 -54 36 -95 0 -40 -3 -48 -19 -48 -10 0
-30 -9 -44 -20 -14 -11 -32 -20 -40 -20 -28 0 -36 108 -12 167 14 32 33 63 40
63 1 0 19 -21 39 -47z m-104 -28 c3 -2 4 -24 2 -49 l-4 -46 -25 20 c-37 29
-63 25 -123 -20 -29 -22 -62 -40 -72 -40 -11 0 -30 -12 -44 -27 l-24 -26 21
52 c30 72 18 82 -58 52 -32 -13 -68 -34 -80 -47 -26 -29 -33 -30 -33 -6 0 10
-7 28 -16 40 -19 27 -21 24 31 49 96 48 187 64 325 57 52 -3 97 -7 100 -9z
m-19 -94 c16 -16 29 -36 29 -44 0 -8 -21 -25 -47 -38 -35 -18 -55 -36 -73 -69
-52 -94 -45 -89 -77 -57 -22 21 -39 27 -71 27 -47 0 -49 5 -27 57 21 50 43 73
71 73 13 0 38 13 56 28 70 61 97 65 139 23z m-247 11 c2 -4 -4 -27 -14 -50
-10 -23 -27 -67 -36 -97 -11 -33 -27 -61 -41 -70 -23 -15 -23 -15 -23 25 0 43
-14 46 -30 6 -8 -18 -9 -16 -10 14 -5 98 6 121 79 154 62 28 68 30 75 18z
m-193 -34 c9 -20 13 -60 11 -102 -3 -93 -25 -119 -53 -63 -9 19 -8 19 10 -3
32 -39 24 -10 -9 34 -17 22 -30 49 -30 60 1 27 36 106 48 106 5 0 16 -15 23
-32z m714 -9 c120 -57 169 -130 170 -249 0 -59 -4 -82 -20 -105 l-19 -30 -7
38 c-9 53 -28 85 -64 107 -30 19 -32 23 -27 68 3 41 0 53 -21 78 -14 17 -46
43 -71 59 -34 21 -46 35 -46 53 0 28 12 26 105 -19z m-94 -25 c7 -8 30 -24 51
-35 48 -25 72 -69 64 -120 -6 -35 -3 -40 33 -68 42 -34 67 -87 56 -122 -10
-30 -52 -91 -78 -111 -21 -16 -21 -17 -3 -37 24 -27 14 -68 -18 -77 -23 -5
-72 -61 -63 -70 3 -3 14 8 25 24 26 36 87 57 144 49 57 -8 213 -86 199 -100
-6 -6 -61 -12 -123 -15 -89 -3 -129 1 -188 16 -65 17 -78 18 -95 6 -32 -22
-98 -18 -123 9 -28 30 -75 74 -125 119 l-42 37 55 -19 c37 -13 83 -19 142 -20
89 0 118 5 118 21 0 5 15 23 33 39 40 35 56 82 45 130 -5 19 -10 44 -13 54
-10 44 -98 106 -149 106 -14 0 -28 5 -32 12 -10 16 25 38 63 38 18 0 33 5 33
11 0 8 -22 10 -77 5 -60 -5 -89 -13 -124 -35 l-47 -29 10 34 c5 19 7 38 4 43
-3 4 15 23 39 40 25 18 45 37 45 42 0 6 6 9 13 6 6 -2 23 4 36 14 29 23 74 24
92 3z m-731 -46 c19 -13 37 -35 41 -50 10 -39 49 -90 64 -84 7 2 26 -4 43 -14
16 -10 33 -16 36 -13 3 4 6 -3 6 -15 0 -30 16 -28 24 2 3 14 18 38 32 55 45
54 118 40 163 -33 12 -18 21 -35 21 -38 0 -3 -19 -11 -42 -17 -23 -7 -67 -26
-97 -42 -65 -35 -88 -36 -102 -6 -10 22 -10 22 -5 0 2 -12 0 -23 -6 -25 -5 -2
0 -16 12 -31 12 -15 17 -27 11 -27 -5 0 -19 12 -30 26 -19 24 -23 25 -50 14
-16 -6 -35 -25 -41 -41 -12 -29 -54 -69 -72 -69 -16 0 23 61 47 72 l24 11 -19
38 c-25 47 -25 56 -1 102 l19 37 -30 25 c-30 25 -78 34 -78 14 0 -6 5 -19 10
-30 6 -10 8 -19 5 -19 -18 0 -86 43 -95 60 -15 28 -15 86 0 105 18 22 72 19
110 -7z m540 -9 c-19 -17 -43 -35 -53 -40 -16 -9 -17 -8 -9 8 12 22 41 48 62
56 33 12 33 5 0 -24z m-639 -115 l20 -22 -34 -6 c-61 -11 -117 -75 -117 -131
0 -18 91 -64 130 -66 22 -1 22 -2 -7 -10 -41 -12 -63 -44 -63 -91 l0 -38 -60
0 c-86 0 -135 -30 -174 -107 -28 -55 -18 -49 23 14 44 69 72 83 161 83 53 0
58 -2 64 -25 4 -14 11 -25 17 -25 6 0 34 20 62 44 l52 44 0 -54 0 -54 -60 0
c-156 -1 -250 -31 -319 -104 -22 -23 -36 -32 -31 -21 4 11 9 38 10 60 3 55 42
268 61 335 28 98 84 171 178 233 l40 27 14 -33 c7 -17 22 -41 33 -53z m242 29
c4 -19 2 -33 -3 -33 -6 0 -10 17 -10 37 0 43 5 41 13 -4z m349 14 c-7 -8 -9
-16 -6 -19 2 -3 -5 -26 -17 -51 l-22 -46 -14 26 c-17 32 -10 53 16 53 11 0 23
5 26 10 3 6 1 10 -6 10 -7 0 -5 8 6 20 20 22 35 19 17 -3z m-315 -9 c-3 -8 -6
-5 -6 6 -1 11 2 17 5 13 3 -3 4 -12 1 -19z m464 -12 c-9 -10 -9 -25 1 -59 10
-40 10 -48 -5 -65 -9 -10 -17 -28 -17 -39 0 -11 -7 -26 -15 -33 -13 -11 -15
-8 -15 18 0 18 -11 43 -27 62 -23 27 -31 31 -60 27 -29 -5 -32 -4 -24 11 24
45 98 92 145 92 23 0 26 -3 17 -14z m-610 -23 c16 -10 29 -23 29 -30 0 -19
-34 -16 -52 5 -38 44 -29 55 23 25z m187 -8 c-6 -14 -13 -23 -16 -21 -7 7 9
46 18 46 5 0 4 -11 -2 -25z m518 -35 c42 -21 81 -56 72 -65 -6 -6 -90 39 -127
67 -20 15 -21 18 -6 18 10 0 38 -9 61 -20z m-788 -12 c-42 -15 -36 -44 10 -56
l37 -10 -42 -1 c-24 -1 -43 -5 -43 -10 0 -17 44 -41 74 -41 41 0 23 -16 -36
-31 -52 -14 -104 -4 -146 29 -23 18 -23 20 -9 54 23 56 60 78 126 77 49 0 53
-2 29 -11z m812 -58 c0 -8 7 -24 15 -34 8 -11 14 -38 14 -60 l-2 -41 -7 44
c-4 28 -15 51 -29 63 -25 20 -41 23 -41 9 0 -5 -18 -11 -40 -13 -43 -4 -49 5
-25 36 8 11 15 30 15 42 l0 22 50 -27 c27 -14 50 -33 50 -41z m-722 38 c-2
-19 -10 -23 -43 -26 -22 -1 -47 2 -55 8 -25 17 8 32 55 25 29 -4 36 -2 25 5
-13 8 -12 10 3 10 13 0 18 -6 15 -22z m517 -24 c19 -21 25 -38 25 -74 0 -31 5
-52 16 -61 28 -23 37 -60 18 -80 -9 -10 -13 -23 -9 -28 20 -33 -131 7 -164 43
-21 22 -23 31 -17 78 14 112 17 119 50 134 44 19 54 17 81 -12z m-119 -1 c-4
-9 -12 -50 -18 -90 -14 -91 -29 -82 -36 21 -5 80 -8 75 52 85 4 0 5 -7 2 -16z
m-66 -64 c0 -37 -4 -58 -10 -54 -5 3 -10 11 -10 18 0 6 -12 23 -26 38 l-26 27
28 16 c16 8 32 15 37 16 4 0 7 -27 7 -61z m458 -28 c4 -47 -26 -106 -59 -116
-10 -4 -24 -15 -29 -26 -9 -15 -22 -19 -65 -19 -52 0 -54 1 -46 23 7 18 15 21
46 19 20 -2 44 3 53 10 12 10 14 10 8 1 -15 -26 13 -12 39 19 22 26 26 39 23
77 -3 25 -8 55 -13 66 -9 19 -8 19 15 4 19 -12 26 -27 28 -58z m-783 29 l16
-31 -36 -15 c-50 -20 -100 -30 -92 -17 4 6 19 13 35 16 15 3 39 15 53 26 l24
20 -46 1 c-25 0 -54 7 -65 15 -17 13 -14 14 38 15 54 0 58 -2 73 -30z m725
-48 c0 -15 -5 -34 -10 -42 -7 -11 -8 -5 -3 19 4 23 3 32 -5 27 -6 -3 -20 7
-31 22 -16 23 -17 32 -8 41 17 17 57 -31 57 -67z m-456 45 l28 -23 -36 -36
-36 -36 0 32 c0 17 -7 41 -15 53 -16 22 -15 23 25 32 3 0 18 -9 34 -22z m350
-20 c-3 -10 -18 -20 -32 -24 -25 -6 -26 -6 -4 -14 12 -5 27 -20 34 -34 13 -28
39 -33 58 -10 11 13 10 18 -6 30 -10 8 -26 14 -34 12 -23 -3 -25 5 -8 37 l15
28 31 -39 31 -40 -20 -32 c-18 -30 -24 -33 -52 -27 -18 4 -34 11 -35 17 -2 5
-15 23 -29 40 l-26 30 34 29 c34 29 55 27 43 -3z m-528 -22 c-9 -14 -21 -25
-26 -25 -6 0 -10 -5 -10 -12 0 -6 14 1 30 17 23 22 33 26 42 17 16 -16 48 -15
48 1 0 7 -5 18 -12 25 -9 9 -7 12 10 12 30 0 39 -23 44 -121 l6 -86 -45 8
c-24 5 -57 18 -73 29 -55 39 -73 142 -26 160 29 11 32 5 12 -25z m1011 -20
l43 -17 -33 -18 c-17 -9 -57 -31 -87 -48 -48 -26 -178 -69 -185 -60 -1 2 -5
19 -8 38 -5 29 -1 41 21 68 51 61 151 76 249 37z m-769 -56 c4 -52 15 -67 37
-49 13 10 15 9 15 -6 1 -24 21 -47 88 -102 57 -48 64 -70 31 -103 -29 -29 -85
-20 -119 19 -14 16 -40 39 -57 51 -29 20 -33 28 -33 67 0 36 -3 44 -18 44 -48
0 -57 70 -16 120 24 28 28 30 48 17 15 -10 22 -27 24 -58z m-392 2 c-28 -55
-115 -136 -130 -121 -5 5 -11 33 -14 62 -3 46 -1 56 20 75 14 14 40 23 68 26
25 2 53 4 63 5 15 2 15 -3 -7 -47z m720 17 c-21 -12 -42 4 -32 21 5 8 13 8 28
0 20 -11 20 -12 4 -21z m-626 -2 c0 -2 -8 -10 -17 -17 -16 -13 -17 -12 -4 4
13 16 21 21 21 13z m328 -42 c-3 -14 -5 -12 -10 9 -3 19 -2 25 4 19 6 -6 8
-18 6 -28z m-368 15 c0 -7 10 -9 25 -5 18 5 25 2 25 -8 0 -7 7 -19 15 -26 19
-16 19 -59 -1 -109 -8 -21 -14 -47 -12 -57 5 -28 -26 -28 -60 1 -53 44 -66
151 -25 198 18 19 33 22 33 6z m203 -94 c29 -5 37 -3 37 9 0 12 5 13 23 7 12
-5 22 -13 21 -20 -1 -6 -2 -20 -2 -30 -2 -14 -8 -18 -21 -14 -10 3 -22 0 -25
-6 -4 -6 -29 -11 -56 -11 -40 0 -51 -4 -60 -21 -7 -11 -9 -27 -6 -35 4 -10 -2
-14 -19 -14 -32 0 -40 29 -20 75 8 21 15 52 15 70 l0 32 38 -17 c20 -10 54
-21 75 -25z m97 -84 c0 -9 -5 -22 -12 -29 -6 -6 -9 -15 -5 -18 4 -4 15 4 26
17 l19 23 37 -37 c47 -47 65 -57 104 -57 20 0 36 8 50 26 28 36 57 19 63 -37
5 -50 -10 -59 -51 -30 -16 12 -44 21 -63 21 -31 -1 -32 -1 -13 -15 41 -29 45
-37 45 -81 0 -67 -23 -104 -64 -104 -35 0 -91 32 -110 63 -9 15 -6 21 14 37
14 11 32 20 41 20 9 0 21 12 28 27 11 23 10 29 -3 39 -9 6 -16 18 -16 27 0 19
-52 40 -102 42 -29 1 -39 -3 -44 -17 -7 -23 13 -49 35 -46 10 2 16 -4 16 -17
0 -16 -7 -20 -30 -20 -22 0 -31 5 -33 20 -7 34 -20 40 -44 19 -13 -11 -35 -25
-49 -31 -15 -6 -42 -25 -60 -41 -47 -40 -76 -54 -99 -47 -26 8 -26 32 0 40 11
4 22 18 25 33 12 57 21 76 48 96 25 18 32 19 80 8 28 -6 63 -14 77 -17 14 -3
3 3 -25 14 -27 11 -46 20 -41 20 6 1 1 7 -9 15 -29 21 -3 47 44 45 20 -2 45 2
55 8 25 14 66 4 66 -16z m-353 2 c8 -22 -42 -64 -125 -105 -57 -28 -67 -30
-125 -23 -34 4 -83 8 -109 9 -27 0 -48 4 -48 7 0 4 20 24 43 46 62 57 140 79
290 82 55 1 69 -2 74 -16z m80 -63 c11 0 9 -6 -6 -26 -12 -15 -21 -34 -21 -43
0 -10 -17 -22 -48 -34 -63 -22 -95 -48 -137 -110 l-35 -52 0 40 c1 22 7 58 15
79 8 22 11 44 8 49 -4 6 -1 7 7 2 10 -6 12 -4 7 9 -4 9 -3 15 2 11 6 -3 13 1
18 9 4 7 35 34 68 59 l60 45 24 -19 c13 -10 30 -19 38 -19z m950 5 c7 -2 22
-23 34 -47 18 -35 24 -69 30 -188 5 -80 13 -178 19 -218 13 -98 13 -109 -2
-94 -7 7 -38 12 -69 12 -86 0 -91 34 -9 59 21 6 46 21 54 33 14 19 14 25 1 44
-7 12 -12 30 -9 40 7 26 -37 67 -72 67 -33 0 -94 34 -94 53 0 8 6 11 15 8 24
-10 75 49 75 86 0 45 -11 60 -79 109 -34 25 -61 45 -61 46 0 3 155 -6 167 -10z
m-690 -30 c10 16 15 18 35 8 12 -6 31 -14 42 -17 11 -4 16 -12 12 -21 -3 -9 3
-19 14 -25 16 -9 18 -14 8 -29 -6 -11 -18 -17 -25 -14 -7 3 -13 0 -13 -6 0 -6
-12 -16 -26 -21 -21 -8 -29 -7 -39 6 -10 14 -9 20 7 36 24 24 8 58 -27 58 -14
0 -25 6 -25 13 0 22 14 29 21 10 5 -16 6 -16 16 2z m-555 -50 c41 0 64 -4 60
-10 -16 -28 -126 -156 -169 -196 -26 -25 -92 -81 -147 -124 -134 -105 -205
-180 -250 -262 l-37 -68 6 70 c13 145 46 216 178 387 39 51 84 115 99 143 15
27 28 47 28 43 0 -4 15 1 33 13 27 17 40 19 82 12 28 -4 80 -8 117 -8z m491
-16 c3 -11 15 -23 26 -26 16 -4 21 -13 20 -37 0 -17 -3 -25 -6 -18 -4 10 -8 8
-18 -5 -13 -17 -14 -17 -20 0 -4 9 -15 17 -25 17 -25 0 -34 31 -19 64 15 31
35 34 42 5z m-233 -29 c-6 -11 -17 -20 -25 -20 -25 0 -28 -21 -5 -45 l22 -23
-28 -15 c-30 -15 -144 -32 -144 -21 0 3 13 24 29 48 19 27 48 51 82 68 67 34
84 36 69 8z m170 -10 c0 -12 15 -29 41 -45 37 -24 42 -25 69 -11 29 14 29 14
36 -19 8 -46 -3 -90 -33 -125 -29 -36 -67 -39 -84 -9 -8 15 -14 18 -22 10 -6
-6 -28 -11 -49 -11 -48 0 -58 18 -58 103 0 65 0 65 42 96 49 36 58 38 58 11z
m777 4 c14 -36 -45 -97 -72 -74 -19 16 -28 60 -14 76 16 19 78 18 86 -2z
m-136 -43 l24 -19 -28 -22 c-16 -13 -26 -29 -23 -36 9 -24 -41 -16 -58 8 -19
27 -21 74 -3 81 27 11 66 6 88 -12z m201 -148 c25 -23 23 -41 -7 -49 -38 -9
-55 2 -55 36 0 24 4 30 22 30 12 0 30 -7 40 -17z m-1127 -12 c43 -26 111 -95
130 -130 l15 -31 -24 11 c-14 7 -31 28 -39 48 -22 53 -58 83 -109 88 -49 5
-72 -8 -83 -47 -6 -21 -3 -20 14 8 17 25 27 32 53 32 51 0 81 -21 108 -75 17
-34 37 -56 62 -70 21 -11 38 -24 38 -29 0 -10 -157 -3 -185 9 -17 7 -18 6 -7
-6 8 -9 42 -15 95 -17 86 -4 107 -13 107 -43 0 -28 -43 -34 -95 -15 -54 21
-128 73 -120 86 3 5 -3 14 -13 19 -11 6 -26 25 -35 43 -9 18 -17 26 -17 18 0
-13 -1 -13 -10 0 -13 20 -13 76 0 101 14 25 74 25 115 0z m1055 -4 c0 -13 5
-28 11 -34 7 -7 3 -12 -16 -17 -15 -4 -67 -25 -117 -47 -49 -23 -92 -38 -95
-35 -3 3 23 35 58 72 44 45 76 68 99 74 55 13 60 11 60 -13z m-641 -920 c13
-72 33 -103 87 -135 l39 -23 -35 7 c-104 20 -130 55 -130 176 1 64 2 71 14 55
8 -10 19 -46 25 -80z m-985 -373 c3 -8 2 -12 -4 -9 -6 3 -10 10 -10 16 0 14 7
11 14 -7z"/>
<path d="M1937 4593 c-20 -14 -35 -28 -33 -30 4 -4 86 46 86 53 0 9 -17 1 -53
-23z"/>
<path d="M3059 4239 c23 -4 62 -19 85 -33 136 -81 194 -202 183 -381 -8 -122
-45 -259 -133 -502 -83 -226 -125 -370 -123 -423 1 -27 3 -23 10 20 12 81 52
211 125 409 150 403 170 612 72 764 -53 83 -165 158 -233 156 -24 -1 -22 -3
14 -10z"/>
<path d="M3148 3640 c3 -58 6 -107 8 -109 7 -8 2 153 -6 184 -4 17 -5 -17 -2
-75z"/>
<path d="M3142 3490 c0 -19 2 -27 5 -17 2 9 2 25 0 35 -3 9 -5 1 -5 -18z"/>
<path d="M3117 3388 c-10 -35 -46 -132 -78 -217 -33 -84 -59 -155 -57 -157 10
-9 160 402 156 424 -2 7 -11 -15 -21 -50z"/>
<path d="M1895 3101 c-58 -112 -106 -157 -246 -230 -57 -30 -131 -74 -164 -97
-71 -50 -165 -146 -189 -192 -24 -46 -12 -39 17 11 51 84 178 188 317 257 92
46 191 113 216 147 12 16 36 58 54 94 46 91 53 99 62 63 l7 -29 -2 29 c-3 54
-25 38 -72 -53z"/>
<path d="M1933 3062 c-12 -31 -21 -58 -19 -59 5 -6 47 98 44 107 -2 5 -13 -17
-25 -48z"/>
<path d="M1468 3039 c-163 -85 -217 -132 -249 -221 -24 -65 -28 -64 -56 12 -6
19 -12 27 -13 17 0 -10 9 -35 20 -57 12 -23 21 -61 21 -92 l2 -53 7 55 c21
165 75 229 278 333 72 38 132 70 132 73 0 6 5 8 -142 -67z"/>
<path d="M2966 2974 c-4 -14 -5 -28 -3 -31 3 -2 8 8 11 23 4 14 5 28 3 31 -3
2 -8 -8 -11 -23z"/>
<path d="M1143 2930 c0 -36 2 -50 4 -32 2 17 2 47 0 65 -2 17 -4 3 -4 -33z"/>
<path d="M1884 2958 c-27 -53 -111 -173 -216 -313 -123 -162 -149 -213 -154
-302 l-3 -68 9 68 c11 89 33 132 147 284 142 191 256 363 239 363 -3 0 -13
-15 -22 -32z"/>
<path d="M2946 2908 c-3 -13 -5 -32 -5 -43 1 -11 5 -2 10 19 10 42 6 62 -5 24z"/>
<path d="M3063 2805 c0 -33 2 -45 4 -27 2 18 2 45 0 60 -2 15 -4 0 -4 -33z"/>
<path d="M2933 2770 c0 -41 2 -58 4 -37 2 20 2 54 0 75 -2 20 -4 3 -4 -38z"/>
<path d="M2813 2755 c0 -27 2 -38 4 -22 2 15 2 37 0 50 -2 12 -4 0 -4 -28z"/>
<path d="M3071 2714 c1 -16 5 -40 9 -54 6 -17 7 -9 3 25 -6 56 -14 74 -12 29z"/>
<path d="M2821 2680 c-3 -87 80 -277 158 -363 58 -62 135 -105 313 -172 108
-40 183 -92 204 -139 7 -18 13 -24 14 -14 0 24 -55 84 -104 113 -22 13 -94 44
-159 69 -143 55 -187 80 -253 145 -75 74 -131 187 -159 321 -7 36 -14 54 -14
40z"/>
<path d="M2941 2675 c-1 -30 35 -102 77 -158 45 -58 117 -114 219 -170 92 -49
301 -206 359 -269 67 -72 78 -142 37 -223 -9 -16 -84 -100 -168 -185 -169
-174 -203 -227 -210 -326 l-4 -59 8 51 c5 28 14 68 21 88 12 37 104 159 152
204 l26 23 6 -33 c9 -46 28 -68 73 -83 33 -12 38 -17 36 -42 -2 -15 -6 -60 -9
-99 -7 -81 9 -148 51 -204 14 -19 25 -39 25 -45 0 -6 -18 -22 -41 -34 -37 -21
-42 -22 -58 -7 -10 9 -31 40 -46 68 -37 67 -44 170 -21 282 19 92 14 116 -6
29 -7 -32 -13 -103 -13 -158 0 -108 12 -145 70 -214 24 -27 25 -31 8 -32 -20
-1 -12 -4 30 -13 44 -10 21 -26 -38 -26 -73 0 -104 13 -50 21 36 5 33 6 -21 8
-59 1 -63 3 -102 45 -45 49 -60 74 -78 131 -7 22 -13 31 -13 20 -1 -30 35
-104 74 -151 l35 -42 -37 10 c-111 29 -186 108 -231 243 -8 22 -11 25 -12 10
-1 -26 -49 64 -66 125 -9 31 -13 37 -13 20 -1 -55 123 -274 191 -336 24 -22
59 -46 78 -54 l35 -15 -40 -6 c-30 -5 -19 -7 41 -8 49 0 97 -7 120 -17 28 -12
58 -15 107 -11 43 3 81 0 105 -9 82 -29 156 -11 226 56 28 27 65 60 83 75 40
32 50 78 30 127 -15 35 -25 45 -100 93 -39 26 -57 31 -57 17 0 -4 13 -12 29
-18 33 -13 61 -81 61 -150 0 -89 -29 -115 -126 -116 -67 -1 -97 9 -89 30 3 9
9 35 12 58 5 36 2 45 -27 75 -22 24 -30 28 -25 14 15 -47 16 -74 2 -100 l-14
-28 -31 41 c-38 54 -56 127 -50 207 7 80 14 93 39 66 44 -47 185 -7 233 66 53
80 56 190 8 238 -23 23 -33 26 -66 22 -45 -6 -80 -36 -70 -60 9 -25 23 -21 17
4 -6 20 -3 21 23 15 38 -10 64 -34 64 -60 0 -58 -93 -148 -166 -162 -42 -8
-115 2 -138 19 -15 11 -14 19 13 98 18 55 45 108 75 148 105 144 81 238 -99
374 -266 201 -339 277 -387 402 -12 32 -24 53 -26 47 -7 -22 69 -159 119 -216
28 -31 47 -56 43 -56 -21 0 -157 96 -201 143 -54 56 -79 97 -99 162 -7 22 -13
31 -13 20z m906 -907 c29 -32 36 -78 23 -145 -10 -46 -21 -66 -54 -99 -59 -59
-147 -81 -194 -48 -29 20 -28 44 1 44 52 0 101 23 148 70 76 76 76 142 -1 172
-20 7 -22 11 -10 18 26 17 66 11 87 -12z m-330 -124 c-22 -63 -25 -67 -35 -47
-21 38 -14 70 20 97 18 14 34 24 35 22 2 -1 -8 -34 -20 -72z m432 -329 c17
-20 34 -47 37 -61 8 -31 -17 -88 -45 -103 -18 -10 -19 -8 -14 48 4 40 1 74
-10 105 -19 55 -10 58 32 11z m-243 -123 c-7 -55 -14 -66 -32 -51 -11 9 -11
16 2 41 10 19 14 43 10 62 -5 30 -5 30 10 11 11 -14 14 -32 10 -63z m-29 -69
c5 -15 -47 -63 -67 -63 -9 0 -21 5 -28 12 -8 8 -1 18 31 39 43 28 58 31 64 12z
m108 -26 c27 0 61 4 74 8 35 11 22 -15 -25 -47 -47 -33 -114 -44 -171 -29
l-42 12 37 38 c30 31 40 36 57 28 10 -5 42 -10 70 -10z"/>
<path d="M1187 2550 c3 -52 7 -97 9 -99 7 -8 3 92 -6 144 -6 36 -7 23 -3 -45z"/>
<path d="M2722 2610 c0 -14 2 -19 5 -12 2 6 2 18 0 25 -3 6 -5 1 -5 -13z"/>
<path d="M2731 2570 c-2 -33 42 -168 75 -230 42 -78 71 -111 159 -181 37 -29
76 -67 87 -83 15 -23 18 -25 13 -8 -3 12 -4 22 0 22 15 0 137 -85 160 -111 57
-69 43 -107 -92 -251 -98 -104 -130 -156 -120 -195 4 -14 5 -12 6 5 2 49 35
98 130 196 116 119 135 159 106 220 -18 38 -33 51 -156 131 -114 74 -224 159
-246 192 -38 53 -74 134 -98 221 -13 48 -24 80 -24 72z"/>
<path d="M1261 2509 c-6 -18 -11 -39 -10 -48 0 -9 7 4 14 29 16 51 13 67 -4
19z"/>
<path d="M3503 1927 c-17 -61 -62 -118 -150 -189 -184 -149 -265 -248 -262
-322 1 -26 3 -24 10 13 14 72 68 141 197 250 143 119 196 180 213 238 6 24 10
46 7 48 -2 2 -9 -15 -15 -38z"/>
<path d="M1666 1624 c-3 -10 -4 -50 -2 -88 2 -38 0 -79 -4 -92 -17 -43 -105
-87 -172 -85 -17 0 -28 -5 -28 -13 0 -19 34 -46 58 -46 35 0 107 38 146 77 31
31 36 34 36 16 0 -24 45 -73 69 -74 93 -6 165 21 158 59 -2 12 0 22 4 22 12 0
6 35 -9 52 -12 15 -29 15 -70 3 -23 -8 -52 -51 -52 -80 0 -8 -8 -15 -19 -15
-27 0 -63 82 -67 152 -3 66 -37 145 -48 112z m214 -219 c16 -20 5 -45 -20 -45
-20 0 -25 15 -14 44 8 20 18 20 34 1z"/>
<path d="M1356 1604 c-19 -19 -19 -16 -1 -84 17 -63 19 -128 5 -150 -7 -11
-25 -15 -69 -13 -71 2 -102 24 -93 68 4 24 3 26 -15 17 -11 -6 -25 -17 -31
-24 -12 -15 -12 -59 0 -52 4 3 8 -2 8 -10 0 -9 7 -16 16 -16 9 0 22 -7 28 -15
6 -8 20 -16 31 -18 11 -1 26 -6 34 -11 8 -5 16 -4 21 4 4 7 15 10 23 7 18 -7
82 35 97 63 10 19 8 56 -7 135 -8 44 -11 67 -12 93 -1 26 -13 28 -35 6z"/>
<path d="M2395 1567 c-6 -6 -10 -21 -9 -32 1 -11 4 -47 7 -79 3 -33 1 -68 -4
-78 -12 -21 -44 -23 -79 -3 -40 23 -51 19 -48 -17 1 -18 6 -36 12 -40 14 -9
-10 -35 -39 -42 -15 -4 -38 0 -56 10 -30 15 -31 18 -24 61 5 35 4 44 -7 41 -7
-3 -19 -16 -26 -31 -10 -21 -10 -32 4 -67 19 -46 38 -60 87 -60 39 0 84 31 97
66 7 17 17 24 35 24 15 0 35 5 46 10 13 8 25 7 39 0 11 -6 36 -11 55 -12 19
-1 35 -5 35 -10 0 -5 8 -4 18 1 9 5 44 14 76 20 33 6 68 18 78 28 37 33 12 94
-49 120 -43 18 -58 7 -93 -67 -21 -45 -27 -50 -56 -50 -45 0 -53 19 -57 127
-2 68 -6 88 -17 90 -8 2 -20 -3 -25 -10z m241 -154 c13 -14 23 -28 21 -30 -6
-5 -97 -21 -97 -16 0 16 31 73 40 73 6 0 22 -12 36 -27z"/>
<path d="M1539 1546 c9 -10 9 -20 0 -40 -11 -23 -9 -29 11 -51 21 -22 49 -26
68 -10 4 3 -79 115 -86 115 -2 0 1 -6 7 -14z"/>
<path d="M2761 1547 c-9 -11 -9 -37 -1 -107 12 -110 17 -121 47 -109 21 8 22
10 7 44 -8 19 -17 66 -20 103 -6 73 -14 91 -33 69z"/>
<path d="M1313 1532 c-12 -4 -34 -18 -49 -31 l-28 -24 22 -17 c21 -17 21 -18
2 -23 -12 -3 -20 -14 -20 -26 0 -25 0 -25 45 -4 38 18 50 41 40 80 -3 14 -1
31 6 39 6 8 10 14 8 13 -2 -1 -14 -4 -26 -7z"/>
<path d="M2864 1494 c-21 -139 27 -287 113 -347 53 -38 118 -66 153 -66 14 0
-1 8 -36 19 -160 51 -232 166 -222 352 3 48 4 88 2 88 -1 0 -6 -21 -10 -46z"/>
<path d="M3178 1073 c12 -2 30 -2 40 0 9 3 -1 5 -23 4 -22 0 -30 -2 -17 -4z"/>
<path d="M2680 775 l0 -176 133 3 132 3 3 28 c2 19 -1 27 -12 27 -9 0 -16 -9
-16 -20 0 -19 -7 -20 -105 -20 l-106 0 2 154 c0 85 -2 160 -6 165 -19 33 -25
-3 -25 -164z"/>
<path d="M3794 939 c-4 -6 -6 -81 -5 -165 l2 -154 -30 0 c-36 0 -52 19 -22 27
20 5 21 12 21 116 l0 110 -21 -19 c-11 -10 -16 -20 -10 -22 7 -2 11 -33 11
-77 0 -64 -2 -73 -20 -78 -15 -4 -20 -14 -20 -41 l0 -36 55 0 55 0 0 175 c0
96 -2 175 -4 175 -3 0 -8 -5 -12 -11z"/>
<path d="M3840 777 c0 -148 2 -177 15 -177 11 0 15 28 17 161 3 142 1 162 -14
176 -17 15 -18 7 -18 -160z"/>
<path d="M4106 771 c-4 -5 -2 -12 3 -15 5 -4 12 -2 15 3 4 5 2 12 -3 15 -5 4
-12 2 -15 -3z"/>
<path d="M3250 750 c0 -5 5 -10 10 -10 6 0 10 5 10 10 0 6 -4 10 -10 10 -5 0
-10 -4 -10 -10z"/>
<path d="M846 722 c-3 -6 -1 -14 5 -17 15 -10 25 3 12 16 -7 7 -13 7 -17 1z"/>
<path d="M895 719 c-10 -15 3 -25 16 -12 7 7 7 13 1 17 -6 3 -14 1 -17 -5z"/>
<path d="M3276 721 c-4 -5 -2 -12 3 -15 5 -4 12 -2 15 3 4 5 2 12 -3 15 -5 4
-12 2 -15 -3z"/>
<path d="M4067 724 c-4 -4 -7 -22 -7 -41 0 -32 1 -33 40 -33 29 0 40 -4 40
-15 0 -12 -14 -15 -65 -15 -63 0 -65 -1 -65 -25 0 -21 -5 -25 -30 -25 -20 0
-30 5 -30 15 0 8 9 15 20 15 11 0 20 5 20 10 0 6 -16 10 -36 10 -35 0 -35 -1
-32 -37 l3 -38 55 0 c53 0 55 1 58 28 3 26 5 27 68 27 l65 0 -3 63 -3 62 -45
3 c-25 2 -49 0 -53 -4z m73 -34 c0 -5 -11 -10 -25 -10 -14 0 -25 5 -25 10 0 6
11 10 25 10 14 0 25 -4 25 -10z"/>
<path d="M3040 710 c0 -5 5 -10 10 -10 6 0 10 5 10 10 0 6 -4 10 -10 10 -5 0
-10 -4 -10 -10z"/>
<path d="M3090 710 c0 -5 5 -10 10 -10 6 0 10 5 10 10 0 6 -4 10 -10 10 -5 0
-10 -4 -10 -10z"/>
<path d="M3225 710 c3 -5 10 -10 16 -10 5 0 9 5 9 10 0 6 -7 10 -16 10 -8 0
-12 -4 -9 -10z"/>
<path d="M3575 700 c3 -5 10 -10 16 -10 5 0 9 5 9 10 0 6 -7 10 -16 10 -8 0
-12 -4 -9 -10z"/>
<path d="M817 673 c-4 -3 -7 -21 -7 -40 0 -33 1 -33 45 -33 52 0 61 17 13 22
-48 4 -36 23 15 23 36 0 42 -3 45 -22 3 -23 6 -23 133 -23 l129 0 0 30 c0 20
-5 30 -15 30 -8 0 -15 -9 -15 -20 0 -19 -7 -20 -105 -20 l-105 0 0 30 0 30
-63 0 c-35 0 -67 -3 -70 -7z"/>
<path d="M1277 674 c-19 -20 4 -24 128 -24 113 0 135 -2 135 -15 0 -13 -23
-15 -150 -15 -143 0 -150 1 -150 20 0 39 -19 19 -22 -22 -3 -39 -6 -43 -31
-46 -40 -5 -28 -27 14 -27 30 0 34 3 37 28 l3 27 260 0 259 0 0 40 c0 45 -17
55 -22 13 -5 -39 -28 -42 -28 -3 0 39 -23 36 -28 -3 -4 -35 -20 -35 -24 1 -2
15 -7 27 -13 27 -5 0 -11 -12 -13 -27 -3 -24 -8 -28 -33 -28 -19 0 -29 5 -29
15 0 9 9 15 21 15 12 0 19 5 17 13 -4 9 -47 13 -164 15 -88 1 -163 -1 -167 -4z"/>
<path d="M1827 674 c-4 -4 -7 -22 -7 -41 l0 -33 190 0 190 0 0 25 c0 14 5 25
10 25 6 0 10 -11 10 -25 0 -16 6 -25 15 -25 11 0 15 11 15 41 l0 40 -37 -3
c-33 -3 -38 -7 -41 -31 l-3 -27 -160 2 c-208 4 -214 22 -8 26 113 2 149 6 146
15 -4 13 -307 23 -320 11z"/>
<path d="M2357 674 c-13 -13 -7 -24 13 -24 11 0 20 -7 20 -15 0 -12 -13 -15
-55 -15 -30 0 -55 -4 -55 -10 0 -6 70 -10 190 -10 l190 0 0 30 c0 20 -5 30
-15 30 -8 0 -15 -9 -15 -20 0 -19 -7 -20 -104 -20 l-105 0 -3 28 c-2 20 -9 28
-28 30 -14 2 -29 0 -33 -4z"/>
<path d="M3007 674 c-4 -4 -7 -22 -7 -41 l0 -33 50 0 c28 0 50 5 50 10 0 6
-16 10 -35 10 -24 0 -35 5 -35 15 0 11 12 15 45 15 41 0 45 -2 45 -25 l0 -25
130 0 130 0 0 30 c0 34 -15 40 -23 10 -5 -18 -14 -20 -105 -20 l-101 0 -3 28
c-3 26 -5 27 -68 30 -36 2 -69 0 -73 -4z"/>
<path d="M3417 674 c-4 -4 -7 -22 -7 -41 0 -32 1 -33 40 -33 29 0 40 -4 40
-15 0 -11 -11 -15 -41 -15 -52 0 -48 -24 5 -28 42 -4 66 11 66 39 0 17 8 19
75 19 l75 0 0 30 c0 34 -15 40 -23 10 -4 -17 -14 -20 -65 -20 -59 0 -61 1 -64
28 -3 24 -7 27 -48 30 -25 2 -49 0 -53 -4z m73 -39 c0 -9 -9 -15 -25 -15 -16
0 -25 6 -25 15 0 9 9 15 25 15 16 0 25 -6 25 -15z"/>
<path d="M3990 660 c0 -5 5 -10 10 -10 6 0 10 5 10 10 0 6 -4 10 -10 10 -5 0
-10 -4 -10 -10z"/>
<path d="M1036 561 c-4 -5 -2 -12 3 -15 5 -4 12 -2 15 3 4 5 2 12 -3 15 -5 4
-12 2 -15 -3z"/>
<path d="M1080 560 c0 -5 7 -10 16 -10 8 0 12 5 9 10 -3 6 -10 10 -16 10 -5 0
-9 -4 -9 -10z"/>
<path d="M1996 561 c-4 -5 -2 -12 3 -15 5 -4 12 -2 15 3 4 5 2 12 -3 15 -5 4
-12 2 -15 -3z"/>
<path d="M2040 560 c0 -5 7 -10 16 -10 8 0 12 5 9 10 -3 6 -10 10 -16 10 -5 0
-9 -4 -9 -10z"/>
<path d="M2500 560 c0 -5 7 -10 16 -10 8 0 12 5 9 10 -3 6 -10 10 -16 10 -5 0
-9 -4 -9 -10z"/>
<path d="M2550 560 c0 -5 5 -10 10 -10 6 0 10 5 10 10 0 6 -4 10 -10 10 -5 0
-10 -4 -10 -10z"/>
<path d="M2812 561 c4 -13 18 -16 19 -4 0 4 -5 9 -11 12 -7 2 -11 -2 -8 -8z"/>
</g>
</svg>
