<?xml version="1.0" standalone="no"?>
<!DOCTYPE svg PUBLIC "-//W3C//DTD SVG 20010904//EN"
 "http://www.w3.org/TR/2001/REC-SVG-20010904/DTD/svg10.dtd">
<svg version="1.0" xmlns="http://www.w3.org/2000/svg"
 width="980.000000pt" height="980.000000pt" viewBox="0 0 980.000000 980.000000"
 preserveAspectRatio="xMidYMid meet">

<g transform="translate(0.000000,980.000000) scale(0.100000,-0.100000)"
fill="#000000" stroke="none">
<path d="M4759 7938 c-67 -57 -139 -116 -159 -133 -37 -30 -325 -272 -849
-715 -146 -124 -346 -292 -445 -375 -98 -82 -215 -181 -261 -220 -46 -38 -190
-160 -321 -270 -764 -640 -884 -745 -884 -774 0 -15 8 -35 18 -44 30 -27 65
-20 113 21 24 21 115 98 202 170 l157 133 -2 -453 -3 -452 -75 -24 c-41 -13
-117 -27 -169 -31 -80 -7 -97 -12 -113 -31 -23 -28 -23 -51 1 -77 15 -16 37
-21 109 -26 52 -4 124 -17 171 -32 l81 -26 0 -1388 c0 -1332 1 -1389 18 -1404
17 -16 209 -17 2556 -17 l2537 0 15 35 c12 30 14 291 12 1975 -2 1067 0 1940
4 1940 6 0 118 -93 318 -265 30 -26 65 -52 77 -57 30 -14 72 -2 84 25 21 47
65 7 -696 646 -148 124 -287 242 -310 262 -22 19 -125 107 -230 194 -294 246
-375 314 -445 375 -36 31 -164 139 -285 241 -121 101 -324 272 -451 379 -622
526 -613 519 -641 520 -7 0 -67 -46 -134 -102z m302 -181 c86 -72 306 -259
490 -413 184 -155 512 -432 730 -615 217 -184 544 -460 727 -613 l332 -279 0
-1974 0 -1973 -754 0 -755 0 -4 798 c-3 785 -4 798 -25 882 -169 647 -925 919
-1457 525 -167 -123 -289 -303 -348 -513 -21 -76 -22 -91 -25 -884 l-3 -808
-759 0 -760 0 0 1299 c0 715 4 1302 8 1305 12 7 135 -119 179 -184 76 -112
136 -283 164 -465 14 -97 21 -111 55 -119 50 -13 70 13 84 106 56 383 229 644
500 754 74 30 190 54 261 54 55 0 89 24 89 63 0 46 -38 67 -124 67 -60 0 -177
28 -249 59 -188 81 -347 271 -421 503 -28 89 -66 265 -66 310 0 16 -34 38 -59
38 -43 0 -56 -26 -75 -145 -30 -190 -101 -366 -199 -493 -41 -55 -123 -132
-138 -132 -5 0 -9 208 -9 463 l1 462 221 185 c368 309 561 471 599 504 20 17
69 59 110 93 41 34 241 202 444 373 204 172 422 356 485 409 63 53 187 158
275 232 276 233 308 259 314 259 3 0 76 -60 162 -133z m-2152 -2551 c56 -149
178 -309 311 -408 19 -15 66 -42 104 -61 l69 -36 -39 -16 c-193 -81 -368 -278
-460 -520 -18 -48 -24 -56 -30 -40 -56 158 -130 283 -223 378 -75 78 -126 116
-225 168 l-69 37 36 11 c102 34 274 179 353 298 39 59 108 201 119 246 4 15
10 27 14 27 4 0 22 -38 40 -84z m2187 -1076 c298 -76 527 -315 589 -615 13
-63 15 -191 15 -850 l0 -775 -805 0 -806 0 4 793 c4 890 0 841 81 1012 120
253 361 424 646 459 65 8 196 -4 276 -24z"/>
<path d="M5200 6990 c-11 -11 -20 -33 -20 -49 0 -48 -39 -227 -66 -304 -65
-180 -178 -335 -311 -423 -106 -70 -281 -124 -402 -124 -50 0 -74 -20 -74 -60
0 -45 19 -56 115 -65 176 -15 329 -80 445 -189 154 -143 236 -314 282 -586 21
-120 32 -140 77 -140 35 0 60 41 67 110 23 214 120 445 241 574 134 141 287
213 496 232 83 7 110 23 110 64 0 39 -29 60 -81 60 -71 0 -218 35 -292 69
-180 81 -306 219 -395 431 -32 75 -70 226 -78 307 -5 51 -13 73 -30 90 -28 28
-58 29 -84 3z m89 -475 c86 -202 228 -362 392 -442 43 -21 78 -40 78 -43 1 -3
-27 -19 -61 -35 -188 -89 -345 -273 -433 -508 -20 -54 -24 -52 -50 18 -74 210
-242 404 -424 490 -58 28 -76 45 -48 45 6 0 48 21 92 47 160 92 307 272 382
468 24 64 27 67 36 45 6 -14 22 -52 36 -85z"/>
</g>
</svg>
