<?xml version="1.0" standalone="no"?>
<!DOCTYPE svg PUBLIC "-//W3C//DTD SVG 20010904//EN"
 "http://www.w3.org/TR/2001/REC-SVG-20010904/DTD/svg10.dtd">
<svg version="1.0" xmlns="http://www.w3.org/2000/svg"
 width="500.000000pt" height="500.000000pt" viewBox="0 0 500.000000 500.000000"
 preserveAspectRatio="xMidYMid meet">

<g transform="translate(0.000000,500.000000) scale(0.100000,-0.100000)"
fill="#000000" stroke="none">
<path d="M2334 4425 c-4 -9 -3 -54 1 -100 5 -67 10 -85 22 -85 12 0 15 8 10
39 -5 40 -5 40 31 43 19 2 37 9 40 17 3 10 -5 12 -37 9 -40 -3 -41 -3 -41 28
0 30 3 33 40 39 56 9 50 25 -10 25 -36 0 -52 -4 -56 -15z"/>
<path d="M2635 4344 c-5 -75 -12 -104 -28 -125 -20 -28 -21 -28 -126 -26 -127
2 -184 -13 -291 -77 -41 -25 -96 -55 -122 -67 -27 -12 -48 -27 -48 -34 0 -7
-23 -27 -50 -45 -109 -70 -140 -133 -181 -364 -28 -163 -48 -209 -140 -334
-131 -175 -141 -206 -154 -453 -7 -126 -6 -140 14 -184 17 -40 20 -59 15 -111
-8 -75 10 -207 38 -283 26 -68 90 -138 160 -176 29 -15 54 -29 55 -29 1 -1 -2
-18 -6 -39 -5 -20 -5 -37 -1 -37 4 0 10 12 13 27 13 67 19 88 46 142 32 63
101 157 245 336 108 134 141 192 157 280 14 73 6 225 -15 282 -14 40 -14 42 3
31 10 -6 30 -30 44 -53 49 -77 106 -134 145 -145 59 -16 164 -12 355 15 34 5
37 3 29 -12 -5 -10 -12 -49 -16 -88 -4 -38 -13 -95 -21 -125 -12 -47 -106
-298 -120 -320 -5 -9 -165 51 -201 75 -14 9 -25 29 -29 52 -14 82 -35 126 -53
109 -10 -11 -4 -134 8 -156 15 -28 58 -48 137 -64 95 -21 138 -40 216 -101
157 -123 194 -236 166 -510 -20 -197 -18 -282 9 -337 13 -27 29 -48 34 -48 6
0 4 8 -5 18 -49 54 -61 191 -27 293 12 33 47 112 79 174 61 118 74 161 60 207
-10 35 -4 35 46 2 110 -73 127 -123 63 -192 -12 -12 -17 -22 -12 -22 13 0 64
80 64 101 0 29 -50 80 -135 136 -114 75 -180 128 -205 163 -34 48 -67 139 -89
243 -19 95 -19 96 1 159 10 35 22 95 25 133 3 39 11 80 19 91 11 18 134 72
134 59 0 -2 -16 -27 -35 -57 -61 -91 -79 -151 -79 -258 0 -111 27 -200 87
-291 51 -76 117 -122 255 -177 137 -55 188 -89 201 -135 7 -24 9 -26 10 -10 2
51 -76 107 -222 159 -137 49 -207 105 -258 206 -92 182 -89 329 8 491 46 76
116 156 98 112 -4 -11 -26 -72 -48 -135 -35 -99 -41 -127 -41 -200 0 -70 4
-94 24 -135 33 -69 120 -151 215 -205 92 -51 263 -178 300 -221 45 -54 50
-114 15 -180 -7 -13 -68 -80 -134 -149 -142 -146 -161 -178 -161 -270 1 -72
18 -114 69 -169 l31 -34 -30 7 c-107 25 -195 137 -195 247 0 70 27 116 111
191 187 164 220 201 219 245 -1 10 -7 0 -15 -22 -14 -40 -40 -67 -203 -213
-93 -84 -122 -130 -122 -199 l-1 -48 -21 40 c-54 102 -43 160 44 252 34 35 58
63 54 63 -18 0 -118 -118 -132 -157 -21 -55 -9 -110 49 -207 60 -104 87 -136
137 -169 l45 -29 -62 6 c-82 9 -154 31 -187 57 -15 12 -29 19 -32 16 -7 -7 57
-45 107 -62 24 -9 94 -20 156 -24 61 -5 117 -12 125 -17 7 -5 47 -10 88 -11
41 -1 94 -5 117 -9 60 -9 102 9 157 66 27 28 52 50 56 50 4 0 13 13 20 29 13
32 7 66 -19 95 -21 24 -87 66 -103 66 -7 -1 -1 -7 13 -15 33 -18 49 -61 49
-131 0 -66 -21 -84 -95 -84 -67 0 -77 8 -65 49 5 18 5 42 1 55 -10 26 -39 52
-48 43 -3 -4 1 -9 9 -12 9 -4 14 -14 12 -23 -14 -74 -14 -74 -31 -60 -32 26
-53 90 -53 164 0 39 3 74 6 77 4 3 16 0 28 -8 64 -45 174 14 206 111 15 45 8
109 -16 135 -22 24 -75 25 -97 1 -19 -21 -22 -42 -7 -42 6 0 10 7 10 15 0 19
10 19 38 -1 45 -31 15 -107 -58 -144 -44 -22 -114 -26 -147 -7 l-22 12 24 72
c14 40 40 93 59 117 48 63 61 106 46 152 -17 52 -59 94 -189 194 -64 49 -130
103 -148 122 -54 56 -101 146 -119 226 -32 142 -13 235 119 604 61 167 80 267
75 377 -5 101 -24 145 -90 207 -69 66 -146 96 -199 76 l-25 -10 4 59 c8 111
-43 188 -160 239 -44 19 -58 31 -62 51 -3 14 -16 40 -30 57 -15 16 -26 33 -26
37 0 3 20 3 45 -1 38 -5 45 -4 45 10 0 12 -10 16 -40 16 -39 0 -40 1 -40 36
l0 37 40 -6 c30 -4 40 -2 40 9 0 9 -12 14 -35 14 -33 0 -35 2 -35 31 0 31 1
32 40 26 30 -4 40 -2 40 9 0 8 -8 14 -17 14 -10 0 -34 3 -54 6 l-36 6 -8 -98z
m56 -195 c5 -43 -2 -69 -20 -69 -10 0 -24 -7 -31 -15 -45 -54 -68 49 -30 134
l20 44 29 -41 c17 -22 30 -46 32 -53z m-113 -13 c3 -38 3 -38 -20 -22 -32 23
-50 20 -93 -14 -21 -16 -45 -30 -53 -30 -9 0 -24 -8 -35 -17 -20 -17 -20 -17
-12 2 19 49 18 65 -4 65 -24 0 -96 -34 -106 -50 -10 -17 -21 -11 -34 17 -15
33 -10 38 75 68 59 21 84 25 174 22 l105 -2 3 -39z m-12 -41 c28 -28 27 -48
-2 -53 -28 -6 -58 -37 -84 -87 l-23 -44 -30 25 c-22 18 -39 25 -59 22 -25 -4
-27 -2 -22 16 15 48 36 76 62 82 15 4 42 20 60 36 40 35 65 35 98 3z m-348
-31 c10 -40 0 -129 -15 -129 -6 0 -15 4 -20 9 -5 5 -3 6 5 2 18 -11 15 2 -8
31 -24 31 -25 54 -4 100 18 37 30 34 42 -13z m146 29 c-4 -10 -8 -28 -8 -40
-1 -11 -4 -19 -8 -17 -3 2 -12 -13 -18 -33 -6 -21 -14 -45 -17 -53 -3 -8 -7
-21 -9 -28 -1 -8 -6 -17 -10 -20 -4 -4 -4 1 -1 11 4 9 2 17 -3 17 -6 0 -10 15
-10 33 -1 30 -2 31 -15 13 -20 -26 -28 -3 -17 49 7 34 14 43 52 62 56 27 75
29 64 6z m421 -22 c68 -32 97 -60 120 -113 22 -54 20 -140 -5 -169 l-19 -24
-1 34 c0 24 -9 42 -35 68 -28 28 -35 43 -35 73 0 39 -39 100 -63 100 -15 0
-47 31 -47 47 0 19 18 16 85 -16z m-625 0 c-5 -11 -10 -29 -10 -41 0 -20 -1
-21 -25 -3 l-24 18 27 22 c33 28 46 29 32 4z m576 -36 c53 -35 72 -72 62 -117
-2 -8 14 -30 35 -50 29 -28 37 -43 37 -71 0 -19 3 -37 8 -40 4 -2 2 -2 -5 -1
-7 2 -21 -12 -33 -31 -11 -18 -28 -36 -37 -39 -14 -6 -14 -8 2 -25 19 -22 13
-61 -10 -61 -8 0 -25 -14 -37 -31 -42 -56 -95 -72 -138 -42 -32 23 -53 26 -46
7 3 -8 1 -25 -4 -39 -15 -40 -58 -33 -119 18 -44 36 -51 47 -51 78 0 28 -4 36
-17 35 -44 -3 -37 99 7 111 26 7 25 25 -1 49 -19 17 -19 19 -3 31 30 22 36 15
33 -37 -2 -27 0 -53 4 -56 4 -4 7 -25 7 -46 0 -35 2 -39 20 -33 14 4 20 2 20
-9 0 -16 77 -86 94 -86 6 0 0 9 -14 20 -14 11 -21 20 -16 20 6 0 20 -10 33
-22 13 -12 23 -16 23 -10 0 11 -90 78 -101 75 -3 -1 -6 4 -6 12 0 11 6 11 31
-3 21 -11 57 -16 113 -16 l82 -1 46 48 c42 43 47 51 42 85 -7 55 -15 82 -28
99 -18 21 -84 53 -109 53 -34 0 -18 23 26 37 38 13 38 13 -31 10 -54 -2 -78
-8 -102 -25 l-32 -22 9 29 c4 16 6 31 4 34 -9 9 116 95 140 96 5 1 33 -15 62
-34z m-599 -29 c10 -13 26 -38 35 -55 9 -17 30 -36 45 -42 15 -6 37 -19 49
-30 l21 -20 13 31 c8 19 27 38 46 48 43 20 74 7 106 -44 23 -36 23 -38 9 -112
-16 -82 -29 -77 -30 11 -1 35 3 47 13 47 8 0 18 5 21 10 10 16 -41 2 -97 -26
-52 -27 -84 -30 -91 -11 -2 6 -3 4 -2 -5 2 -10 0 -18 -3 -19 -31 -3 -57 -11
-68 -20 -13 -10 -18 -6 -39 36 -8 15 -6 29 7 55 17 35 17 35 -8 58 -14 12 -31
22 -39 22 -20 0 -29 -20 -15 -33 10 -9 12 -8 7 6 -8 21 6 22 38 1 30 -20 23
-37 -9 -24 -13 5 -26 6 -29 4 -9 -9 -66 25 -77 45 -11 22 -14 74 -3 84 3 4 23
7 44 7 28 0 42 -6 56 -24z m417 2 c-16 -12 -35 -26 -43 -32 -12 -9 -12 -7 -3
11 13 24 39 42 61 43 7 0 1 -10 -15 -22z m-534 -45 c0 -9 9 -27 21 -39 l21
-22 -30 -7 c-35 -7 -78 -50 -87 -86 -5 -21 -1 -29 19 -43 15 -9 40 -19 57 -23
l32 -6 -27 -14 c-29 -15 -49 -54 -40 -78 5 -12 -3 -15 -40 -15 -59 0 -99 -20
-131 -67 -14 -21 -25 -35 -25 -32 0 3 9 56 20 117 33 182 60 235 150 301 49
35 60 38 60 14z m217 -35 c-3 -7 -5 -2 -5 12 0 14 2 19 5 13 2 -7 2 -19 0 -25z
m278 22 c-3 -5 -11 -10 -16 -10 -6 0 -7 5 -4 10 3 6 11 10 16 10 6 0 7 -4 4
-10z m126 -14 c-6 -7 -8 -27 -5 -45 4 -18 2 -42 -4 -54 -5 -12 -13 -31 -17
-42 -7 -17 -9 -16 -17 12 -11 41 -48 67 -80 58 -21 -7 -21 -5 7 25 31 34 77
59 109 60 14 0 16 -3 7 -14z m-131 -15 c-1 -3 -6 -16 -14 -29 -11 -21 -14 -22
-25 -8 -10 12 -11 19 -2 29 11 14 41 19 41 8z m193 -35 c28 -12 79 -56 65 -56
-10 0 -98 52 -103 61 -8 12 0 11 38 -5z m-625 -17 c-24 -14 -22 -28 5 -39 21
-8 21 -9 -5 -9 -39 -1 -35 -19 10 -38 33 -14 35 -17 17 -24 -31 -12 -73 -10
-110 5 -27 12 -35 21 -35 41 0 42 41 75 92 75 34 -1 39 -3 26 -11z m656 -51
c2 -12 9 -17 16 -13 16 10 40 -14 40 -42 0 -58 -59 -119 -125 -129 -25 -3 -45
-2 -45 2 1 22 18 32 57 31 28 -1 48 5 62 17 25 23 37 78 22 103 -7 12 -10 14
-11 4 0 -10 -8 -7 -25 9 -20 18 -28 21 -37 12 -12 -12 -58 -17 -58 -7 0 3 7
17 16 30 9 13 12 29 8 36 -4 7 11 2 34 -11 22 -12 43 -32 46 -42z m-580 27
c-5 -13 -14 -16 -38 -11 -51 10 -58 29 -8 24 23 -2 42 1 42 6 0 5 2 7 5 4 3
-3 2 -13 -1 -23z m420 -17 c9 -12 16 -39 16 -59 0 -21 7 -42 16 -49 19 -16 15
-59 -7 -73 -22 -14 -85 0 -114 26 -24 21 -25 24 -15 92 6 38 16 73 23 77 24
15 66 8 81 -14z m-419 -28 c4 -6 -10 -10 -34 -10 -22 0 -43 5 -46 10 -4 6 10
10 34 10 22 0 43 -4 46 -10z m579 -41 c-9 -15 -23 -10 -34 11 -17 32 0 47 22
21 10 -13 15 -27 12 -32z m-361 27 c22 -17 21 -22 -2 -47 -19 -20 -19 -20 -29
10 -12 34 -22 42 -17 14 2 -10 6 -48 9 -85 l5 -67 -46 14 c-49 15 -68 13 -36
-3 36 -19 83 -22 89 -7 8 20 43 -3 37 -25 -5 -20 -56 -40 -83 -33 -26 7 -53
-15 -47 -39 4 -14 -1 -18 -19 -18 -29 0 -31 21 -9 77 16 41 15 57 -3 90 -7 12
-12 27 -12 34 0 21 55 74 80 77 14 2 32 8 40 13 20 11 22 11 43 -5z m664 -1
c60 -18 135 -80 166 -139 19 -35 22 -56 22 -156 0 -135 -16 -202 -99 -425 -73
-193 -96 -275 -102 -370 -11 -143 30 -271 117 -369 l43 -49 -35 18 c-166 84
-244 220 -220 382 6 41 30 123 52 181 89 230 110 299 116 384 7 98 -8 183 -41
231 -21 30 -22 35 -7 44 13 8 1 18 -66 52 -46 22 -91 41 -100 42 -10 0 0 6 22
13 23 7 71 29 108 50 36 21 71 35 77 31 5 -3 10 -1 10 5 0 18 -70 43 -140 50
l-65 6 35 17 c44 20 45 20 107 2z m-388 -21 c-6 -8 -17 -14 -24 -14 -7 0 0
-14 17 -32 25 -27 32 -30 49 -20 20 13 26 3 8 -15 -18 -18 -58 -2 -80 33 l-21
34 24 19 c25 21 46 17 27 -5z m-479 6 c0 -13 -49 -32 -64 -26 -6 2 -4 5 5 5 9
1 22 8 29 16 14 17 30 20 30 5z m550 -43 c0 -5 -8 -6 -17 -2 -10 5 -26 8 -35
9 -21 0 -21 1 -6 26 12 19 13 19 35 -2 13 -12 23 -26 23 -31z m-480 35 c0 -4
-16 -24 -36 -43 l-36 -34 28 43 c25 39 44 53 44 34z m-60 -32 c-11 -21 -50
-46 -50 -32 0 12 39 52 51 52 6 0 6 -7 -1 -20z m843 9 c20 -5 37 -13 37 -17
-1 -20 -179 -102 -221 -102 -15 0 -16 55 -2 77 32 49 103 65 186 42z m-893
-16 c0 -33 -101 -145 -117 -129 -3 3 -8 24 -10 48 -6 53 13 75 72 81 22 2 43
4 48 5 4 1 7 -1 7 -5z m557 -19 c-9 -9 -28 6 -21 18 4 6 10 6 17 -1 6 -6 8
-13 4 -17z m-510 -27 c21 8 46 -44 39 -79 -4 -18 -9 -48 -13 -66 -4 -28 -8
-32 -27 -26 -34 10 -45 24 -56 65 -7 26 -8 51 -1 73 5 19 6 37 3 41 -4 3 5 2
18 -3 14 -5 30 -7 37 -5z m270 -9 c-3 -8 -6 -5 -6 6 -1 11 2 17 5 13 3 -3 4
-12 1 -19z m-351 -95 c-3 -3 -46 -9 -96 -14 -97 -9 -137 -24 -188 -73 l-33
-31 10 28 c36 95 72 129 146 135 52 4 55 3 65 -23 l10 -27 43 35 42 35 3 -30
c2 -16 1 -32 -2 -35z m429 19 c-6 -7 -35 18 -35 31 0 5 9 2 20 -8 11 -10 18
-20 15 -23z m456 -33 c59 -30 62 -33 39 -40 -61 -17 -271 -2 -270 19 1 12 24
38 45 51 33 19 115 6 186 -30z m-585 -11 c3 -4 1 -16 -6 -27 -13 -25 -2 -28
15 -5 11 15 16 13 52 -20 47 -42 95 -49 115 -17 19 30 48 9 48 -34 0 -19 -2
-35 -5 -35 -3 0 -21 9 -41 19 -20 11 -42 17 -50 14 -22 -8 -5 -24 19 -18 12 2
17 2 11 -1 -9 -4 -9 -13 -1 -33 8 -22 7 -38 -4 -67 -18 -47 -48 -54 -96 -24
-42 25 -43 54 -3 72 17 7 33 21 36 30 6 19 -30 77 -49 80 -44 5 -74 4 -83 -4
-20 -15 -94 25 -94 51 0 12 10 14 52 11 14 -1 29 3 33 9 6 11 39 10 51 -1z
m-279 -14 c5 -15 -95 -82 -134 -90 -41 -8 -183 5 -183 16 0 17 72 64 118 76
56 15 194 14 199 -2z m543 -34 c14 0 37 6 51 13 32 18 52 10 128 -49 34 -26
61 -48 61 -48 0 -1 -11 -2 -25 -2 -33 -2 -55 -21 -55 -47 0 -19 -1 -19 -18 -4
-10 10 -33 17 -51 17 -24 0 -34 -6 -43 -25 -10 -22 -8 -30 9 -53 27 -36 70
-42 75 -10 3 25 38 39 38 15 0 -9 12 -24 27 -35 l27 -20 -31 -6 c-20 -5 -52
-29 -88 -67 -51 -54 -56 -62 -43 -75 10 -11 31 -14 69 -12 l54 3 -45 10 -44
10 78 33 c82 35 141 40 141 12 0 -8 -21 -26 -47 -40 -47 -24 -61 -47 -35 -55
28 -9 106 -12 101 -4 -3 5 -25 9 -49 9 -61 0 -65 16 -10 40 48 21 62 39 49 68
-4 9 -6 23 -5 30 4 23 -30 52 -60 52 -15 0 -40 11 -56 25 -27 23 -27 24 -6 25
28 0 65 47 61 79 -2 16 -22 40 -56 68 l-53 43 65 0 66 0 21 -41 c16 -33 23
-74 32 -198 16 -237 14 -271 -16 -297 -62 -53 -252 -94 -457 -97 -133 -2 -151
7 -226 114 -31 44 -67 87 -81 96 -13 9 -30 28 -38 42 -23 45 -107 121 -147
133 -48 14 -41 24 24 32 32 4 68 18 91 33 20 14 40 23 43 20 3 -3 6 -23 6 -44
0 -21 6 -48 14 -61 13 -19 23 -23 56 -20 26 1 43 -2 46 -10 13 -39 102 24 102
72 0 31 14 41 30 21 7 -8 28 -17 47 -21 53 -10 78 20 78 91 0 30 1 55 3 55 1
0 11 -5 21 -12 45 -28 62 50 20 88 -26 24 -24 39 3 20 12 -9 34 -16 48 -16z
m-500 1 c27 -16 29 -20 15 -31 -8 -7 -15 -19 -15 -27 0 -7 -19 -22 -42 -32
-46 -20 -81 -49 -114 -95 l-22 -30 9 53 c10 65 31 99 89 145 25 19 46 35 47
35 2 1 16 -7 33 -18z m897 -51 c45 -91 38 -270 -16 -407 l-18 -46 -7 89 c-4
49 -11 146 -15 215 -6 103 -12 134 -29 163 l-22 37 42 -3 c40 -3 45 -6 65 -48z
m-709 4 c54 -25 64 -40 35 -51 -11 -4 -23 3 -37 20 l-21 26 -35 -22 c-19 -12
-55 -37 -79 -54 -24 -18 -50 -33 -57 -33 -23 0 -25 19 -4 40 11 11 20 31 20
45 0 14 9 34 21 46 26 26 77 21 157 -17z m38 17 c19 16 66 -4 80 -35 13 -29
10 -35 -34 -59 -29 -16 -33 -17 -38 -2 -4 8 -1 22 6 30 16 20 5 45 -20 45 -13
0 -20 6 -19 18 0 11 2 12 6 4 4 -10 8 -10 19 -1z m-435 -45 c29 1 46 -3 45
-10 -2 -6 -8 -31 -15 -55 -7 -24 -11 -58 -10 -76 2 -18 -2 -39 -9 -47 -12 -15
-16 -38 -14 -74 1 -12 21 -42 43 -68 l41 -47 -26 -39 c-34 -52 -80 -84 -225
-159 -163 -85 -216 -133 -241 -221 -7 -24 -8 -24 -25 15 -14 32 -16 58 -12
125 9 161 63 247 245 393 113 90 212 189 234 232 5 11 -3 4 -19 -15 -62 -77
-100 -114 -192 -187 -134 -106 -168 -139 -213 -208 l-40 -60 4 60 c6 84 38
149 140 287 48 66 88 123 88 127 0 3 12 14 28 24 21 14 37 16 77 10 28 -4 71
-7 96 -7z m404 -32 c8 -4 15 -13 15 -20 0 -8 7 -17 15 -20 17 -7 20 -69 5
-108 -13 -35 -58 -56 -74 -35 -8 11 -23 14 -53 11 -52 -5 -62 12 -54 86 5 46
10 56 38 73 31 20 31 20 38 0 8 -26 62 -54 82 -42 13 7 13 10 2 16 -7 5 -14 4
-17 -3 -5 -16 -52 15 -52 35 0 8 5 24 11 36 l12 21 8 -22 c5 -12 15 -25 24
-28z m-205 7 c0 -5 -10 -15 -22 -24 -22 -14 -23 -15 -5 -35 18 -20 18 -21 0
-30 -24 -13 -113 -22 -113 -12 0 17 54 72 89 90 41 22 51 24 51 11z m750 -24
c0 -13 -9 -32 -21 -43 -20 -18 -22 -18 -33 -2 -7 10 -16 15 -20 11 -4 -4 -5 0
-2 10 4 9 8 24 11 32 2 9 16 15 35 15 25 0 30 -4 30 -23z m-104 -21 c19 -14
19 -15 -4 -38 -12 -14 -19 -28 -15 -31 3 -4 -1 -7 -10 -7 -33 0 -63 61 -40 83
11 12 48 8 69 -7z m158 -122 c20 -20 12 -34 -20 -34 -19 0 -24 5 -24 25 0 29
21 33 44 9z m-895 -9 c30 -15 111 -101 111 -117 0 -19 -40 14 -46 37 -8 34
-60 75 -93 75 -30 0 -56 -23 -64 -55 -3 -13 -5 -9 -6 12 0 17 2 38 5 47 8 20
56 21 93 1z m844 -11 c3 -18 0 -27 -12 -31 -9 -3 -47 -19 -84 -35 -38 -16 -71
-27 -74 -25 -10 11 81 97 111 106 48 14 53 13 59 -15z m-812 -30 c11 -9 19
-25 19 -35 0 -16 18 -34 66 -66 16 -11 8 -12 -51 -10 -38 2 -79 7 -89 12 -15
7 -18 5 -11 -6 4 -8 6 -12 2 -9 -3 3 -6 10 -7 15 -2 6 -11 21 -21 34 -22 27
-25 61 -6 80 16 16 73 7 98 -15z m99 -139 c31 -37 -37 -47 -100 -15 -21 11
-41 23 -43 27 -9 15 131 2 143 -12z m-115 -19 c37 -25 92 -38 114 -27 24 13
28 4 37 -92 8 -95 -8 -195 -46 -272 -16 -33 -84 -127 -150 -210 -67 -82 -142
-180 -167 -217 -24 -38 -46 -68 -48 -68 -2 0 -8 31 -15 70 -18 105 -2 146 120
310 161 215 230 337 230 405 0 45 -24 26 -63 -50 -46 -88 -66 -107 -191 -175
-177 -95 -274 -186 -311 -289 -17 -50 -20 -128 -5 -167 6 -15 9 -29 6 -31 -9
-9 -37 96 -47 180 -13 106 0 226 30 286 28 55 73 89 223 166 128 67 221 137
233 175 7 23 23 25 50 6z m50 -165 c-27 -70 -103 -191 -215 -341 -127 -170
-141 -208 -117 -323 14 -69 14 -82 1 -113 l-14 -34 -33 16 c-55 28 -88 55
-117 95 -15 21 -29 37 -31 35 -6 -6 -12 61 -13 134 -1 83 27 141 105 219 56
55 93 79 232 156 95 51 129 84 173 167 42 80 60 73 29 -11z m261 -376 c6 -39
14 -57 41 -82 19 -18 42 -33 50 -33 9 0 13 -3 10 -6 -11 -11 -96 26 -112 49
-10 14 -15 45 -15 87 0 75 15 67 26 -15z m430 -214 c25 -46 58 -81 168 -177
33 -29 36 -35 35 -85 0 -46 -9 -73 -62 -176 l-62 -123 0 148 c0 87 -6 164 -13
189 -20 67 -72 133 -157 202 -44 35 -79 69 -78 75 1 6 21 57 44 114 l43 102
27 -109 c15 -60 39 -132 55 -160z m833 -455 c19 -23 24 -78 11 -126 -22 -82
-110 -138 -179 -114 -37 13 -41 44 -6 44 69 0 155 75 155 135 0 19 -3 35 -7
35 -5 0 -19 9 -33 20 l-25 20 36 0 c20 0 42 -6 48 -14z m-268 -97 l-19 -54
-11 29 c-11 26 -9 32 15 57 15 16 29 27 31 26 1 -2 -6 -28 -16 -58z m-33 -42
c9 -25 9 -43 -3 -87 -17 -64 -20 -177 -4 -217 13 -36 52 -93 62 -93 5 0 -3 14
-17 30 -53 64 -62 193 -21 317 3 9 12 10 35 1 30 -10 31 -12 24 -52 -16 -95 1
-183 47 -232 18 -20 18 -21 2 -36 -30 -27 -93 -48 -142 -48 -40 0 -52 5 -79
33 -38 39 -72 122 -72 175 0 52 40 133 96 192 26 27 50 50 53 50 4 0 12 -15
19 -33z m390 -237 c28 -42 28 -62 -2 -97 l-25 -28 0 62 c1 34 -5 71 -11 83
-19 36 11 20 38 -20z m-226 -141 c-24 -43 -99 -74 -152 -63 l-35 7 45 9 c25 4
51 6 58 3 7 -3 11 -1 8 4 -5 8 46 51 62 51 5 0 9 6 10 13 1 6 5 30 9 52 l8 40
3 -41 c2 -27 -4 -53 -16 -75z m151 -31 c-37 -41 -113 -59 -168 -38 l-26 10 26
22 c22 20 38 23 105 23 73 0 77 -1 63 -17z"/>
<path d="M2286 3758 c5 -8 2 -9 -10 -5 -10 4 -15 3 -11 -3 8 -12 32 -13 39 -1
3 5 -1 12 -10 15 -10 4 -13 2 -8 -6z"/>
<path d="M2951 4308 c-13 -46 -26 -88 -28 -95 -3 -7 2 -13 10 -13 10 0 21 22
32 65 10 36 20 63 22 61 3 -3 8 -37 11 -77 4 -40 12 -74 17 -76 6 -2 32 26 59
62 26 36 49 65 51 65 1 0 -6 -27 -16 -61 -22 -71 -24 -92 -7 -87 12 4 56 134
57 169 1 9 -6 19 -14 23 -10 3 -31 -16 -64 -59 -55 -73 -61 -71 -61 24 0 54
-11 81 -35 81 -5 0 -21 -37 -34 -82z"/>
<path d="M1880 4330 c-24 -9 -46 -22 -47 -27 -2 -6 10 -49 27 -96 23 -62 35
-84 45 -80 12 4 12 10 0 41 -17 39 -12 46 33 58 12 3 22 12 22 20 0 17 0 17
-43 -1 l-35 -15 -11 32 c-6 17 -10 32 -9 33 2 1 18 7 36 14 17 8 32 20 32 27
0 8 -1 14 -2 13 -2 -1 -23 -9 -48 -19z"/>
<path d="M3364 4235 c7 -20 -54 -145 -71 -145 -22 0 -15 -16 12 -28 34 -16 38
-15 31 3 -7 20 54 145 71 145 22 0 15 16 -12 28 -34 16 -38 15 -31 -3z"/>
<path d="M1531 4164 c-25 -21 -31 -34 -31 -65 0 -51 48 -109 92 -109 84 0 123
73 78 148 -34 56 -91 67 -139 26z m110 -38 c26 -42 24 -81 -3 -100 -33 -23
-53 -20 -82 15 -34 40 -34 81 -1 107 32 26 62 18 86 -22z"/>
<path d="M3551 4034 c-33 -48 -50 -79 -44 -85 6 -6 25 13 52 51 23 33 43 60
45 60 1 0 0 -43 -2 -95 -4 -81 -2 -95 11 -95 15 0 117 130 117 150 0 23 -21 7
-60 -47 l-41 -58 2 86 c2 82 -3 109 -19 109 -4 0 -31 -35 -61 -76z"/>
<path d="M3890 3863 c0 -24 -99 -123 -116 -116 -22 8 -16 -12 11 -37 23 -21
30 -20 26 4 -1 5 21 33 49 61 40 40 57 51 73 47 20 -4 19 -2 -7 27 -34 36 -36
37 -36 14z"/>
<path d="M1106 3821 c-29 -29 -45 -54 -41 -61 5 -8 14 -5 31 11 l24 22 60 -57
c83 -79 100 -62 19 20 -60 60 -62 64 -46 82 9 10 17 22 17 25 0 16 -19 4 -64
-42z"/>
<path d="M4007 3608 c-42 -28 -77 -57 -77 -66 0 -15 3 -14 89 44 19 13 36 22
38 20 2 -1 -11 -37 -28 -78 -47 -111 -37 -121 56 -57 78 53 91 66 81 76 -3 3
-31 -11 -62 -31 -31 -21 -58 -36 -60 -33 -2 2 10 38 28 80 20 50 28 81 22 87
-6 6 -37 -9 -87 -42z"/>
<path d="M922 3573 c-11 -10 -27 -30 -36 -44 l-16 -26 80 -53 c55 -36 84 -50
91 -43 7 7 -1 17 -26 33 -46 29 -33 48 38 52 70 4 77 28 8 28 -44 0 -51 3 -51
19 0 20 -34 51 -56 51 -7 0 -21 -8 -32 -17z m58 -28 c11 -13 11 -20 0 -40 -16
-30 -21 -31 -51 -6 -23 19 -24 19 -5 40 23 25 39 27 56 6z"/>
<path d="M4260 3327 c0 -20 -132 -80 -142 -64 -13 21 -18 1 -7 -31 11 -32 29
-43 29 -19 0 19 131 79 145 67 20 -17 25 1 9 31 -15 30 -34 39 -34 16z"/>
<path d="M736 3243 c-7 -7 132 -153 146 -153 15 0 8 24 -12 45 -17 18 -18 25
-8 53 10 25 18 32 47 34 19 2 36 9 39 16 3 9 -22 12 -100 12 -58 0 -108 -3
-112 -7z m114 -21 c0 -5 -6 -16 -12 -25 -12 -16 -15 -15 -43 8 l-30 24 43 1
c23 0 42 -4 42 -8z"/>
<path d="M4362 3068 c3 -34 9 -31 -104 -62 -40 -12 -56 -20 -52 -30 4 -11 21
-9 87 10 44 13 82 24 83 24 1 0 5 -11 8 -25 4 -14 13 -25 20 -25 11 0 10 14
-7 70 -21 72 -41 94 -35 38z"/>
<path d="M605 2729 c-4 -27 -4 -53 -1 -56 7 -7 184 -28 190 -22 2 2 6 28 8 57
4 39 2 52 -8 52 -8 0 -14 -11 -14 -24 0 -42 -10 -56 -42 -56 -29 0 -29 1 -27
42 2 26 -1 43 -9 46 -7 2 -12 -6 -12 -21 0 -41 -10 -57 -36 -57 -22 0 -24 4
-24 45 0 61 -16 57 -25 -6z"/>
<path d="M4387 2743 c-28 -21 -63 -37 -87 -40 -26 -4 -40 -11 -40 -20 0 -12 8
-13 39 -8 29 5 53 0 101 -20 34 -14 64 -25 66 -23 8 9 -16 29 -56 46 l-45 19
43 28 c23 15 42 34 42 41 0 20 -9 17 -63 -23z"/>
<path d="M628 2443 c-25 -3 -38 -9 -38 -19 0 -11 9 -13 39 -8 34 5 39 4 44
-17 4 -13 7 -36 7 -51 0 -26 -3 -28 -40 -28 -30 0 -40 -4 -40 -16 0 -14 11
-15 93 -9 50 4 95 9 100 12 18 11 -8 23 -49 23 l-44 0 0 44 0 45 42 3 c23 2
43 9 46 16 4 12 -68 14 -160 5z"/>
<path d="M4256 2273 c-3 -4 -6 -22 -6 -41 0 -29 2 -33 15 -22 20 17 144 -5
161 -28 11 -15 13 -12 19 21 8 39 0 61 -14 39 -12 -19 -128 -5 -152 19 -9 9
-20 15 -23 12z"/>
<path d="M640 2073 c0 -30 32 -133 42 -133 5 0 8 14 6 32 -3 34 -9 31 106 63
42 12 56 19 48 27 -8 8 -34 5 -90 -9 l-80 -20 -6 28 c-6 31 -26 40 -26 12z"/>
<path d="M4200 2010 c0 -5 34 -20 76 -33 l75 -24 -93 -24 c-126 -33 -127 -47
-7 -83 50 -15 93 -25 96 -22 11 11 -9 23 -67 41 -33 10 -58 21 -54 24 3 3 40
15 82 27 104 28 104 43 -1 77 -90 29 -107 32 -107 17z"/>
<path d="M827 1872 c-10 -10 -17 -32 -17 -49 0 -44 -9 -63 -30 -63 -12 0 -22
12 -30 35 -15 45 -35 47 -26 3 20 -99 116 -80 116 23 0 56 52 47 65 -12 4 -16
11 -29 16 -29 16 0 10 44 -11 78 -23 37 -57 43 -83 14z"/>
<path d="M1787 1817 c-3 -7 -3 -37 -1 -66 4 -47 1 -55 -24 -81 -20 -19 -44
-31 -76 -35 -36 -6 -46 -11 -42 -22 3 -8 6 -17 6 -19 0 -8 49 -4 77 7 15 5 40
22 56 37 15 14 27 21 27 16 0 -6 9 -20 20 -32 27 -28 98 -30 130 -4 24 20 30
66 11 85 -18 18 -64 -4 -81 -40 -8 -18 -19 -33 -23 -33 -13 0 -39 72 -43 118
-4 47 -28 93 -37 69z m159 -158 c7 -12 -15 -31 -28 -23 -9 6 1 34 12 34 5 0
12 -5 16 -11z"/>
<path d="M1567 1806 c-13 -13 -13 -22 -3 -58 7 -24 11 -60 8 -80 -4 -37 -5
-38 -46 -38 -45 0 -66 13 -66 42 0 22 -10 23 -36 4 -24 -18 -12 -42 36 -70 34
-20 90 -29 90 -15 0 5 11 11 25 15 31 8 40 38 31 112 -11 104 -15 112 -39 88z"/>
<path d="M2304 1775 c-3 -8 -3 -39 0 -69 7 -71 -9 -87 -60 -62 l-36 16 3 -32
c4 -40 -6 -58 -31 -58 -32 0 -50 27 -43 63 6 29 5 31 -10 18 -26 -21 -22 -76
8 -99 21 -16 32 -19 56 -12 37 11 59 28 59 45 0 17 56 25 109 15 63 -11 165
17 169 47 5 32 -26 73 -54 73 -18 0 -32 -12 -52 -45 -46 -77 -82 -56 -82 47 0
54 -3 68 -15 68 -9 0 -18 -7 -21 -15z m180 -126 c-6 -10 -54 -12 -54 -3 0 3 5
14 11 25 10 20 12 20 30 3 10 -9 16 -21 13 -25z"/>
<path d="M1694 1745 c2 -40 27 -71 51 -61 14 5 13 11 -11 43 -16 21 -31 42
-34 46 -4 4 -6 -8 -6 -28z"/>
<path d="M2565 1698 c8 -85 15 -101 34 -88 12 7 13 15 3 48 -7 22 -12 56 -12
76 0 26 -4 36 -16 36 -14 0 -15 -10 -9 -72z"/>
<path d="M1518 1744 c-28 -15 -38 -44 -15 -44 6 0 4 -5 -5 -11 -10 -5 -18 -17
-18 -24 0 -19 4 -19 40 0 26 13 30 21 28 55 -1 22 -2 40 -2 40 -1 -1 -13 -8
-28 -16z"/>
<path d="M938 1584 c-58 -31 -66 -91 -23 -158 21 -32 20 -32 113 29 l72 46
-17 31 c-38 64 -89 83 -145 52z m108 -41 c13 -14 23 -28 21 -29 -2 -2 -31 -22
-65 -43 l-62 -40 -15 29 c-21 40 -19 57 10 85 33 34 78 33 111 -2z"/>
<path d="M3982 1530 c2 -5 27 -27 57 -50 62 -46 60 -47 -29 -20 -40 12 -68 16
-74 10 -6 -6 7 -33 32 -72 23 -34 39 -64 37 -66 -2 -2 -26 14 -55 35 -50 37
-65 43 -65 24 0 -10 134 -111 148 -111 23 0 15 37 -21 92 -23 34 -39 64 -37
66 2 2 36 -6 76 -17 63 -18 76 -19 87 -7 12 12 3 22 -60 70 -70 52 -104 69
-96 46z"/>
<path d="M1151 1281 c-52 -47 -71 -70 -62 -76 9 -5 32 11 68 46 31 30 54 47
51 39 -21 -62 -40 -172 -32 -180 7 -7 35 13 83 56 51 48 69 70 62 77 -8 8 -27
-4 -66 -43 l-54 -53 14 59 c23 93 28 131 19 137 -5 3 -42 -25 -83 -62z"/>
<path d="M3747 1254 c-3 -3 -1 -19 5 -36 9 -26 8 -33 -14 -55 -24 -24 -26 -24
-56 -9 -21 11 -33 13 -38 5 -9 -15 0 -21 94 -64 49 -23 86 -35 91 -29 9 9 -57
194 -69 194 -4 0 -9 -3 -13 -6z m42 -125 c15 -42 15 -42 -19 -24 -33 17 -36
25 -18 43 18 18 25 15 37 -19z"/>
<path d="M1431 1024 c-16 -64 -20 -99 -13 -106 6 -6 39 10 96 48 49 33 83 61
78 66 -5 5 -22 2 -38 -8 -28 -16 -32 -16 -58 1 -22 15 -27 24 -24 53 6 72 -19
40 -41 -54z m69 -34 c0 -3 -13 -14 -30 -23 -32 -19 -36 -14 -20 28 9 22 12 24
30 13 11 -7 20 -15 20 -18z"/>
<path d="M3435 1016 c-16 -7 -39 -23 -49 -34 -19 -21 -18 -22 8 -62 26 -39 27
-40 51 -24 30 20 33 38 4 29 -19 -6 -48 16 -49 37 0 10 55 38 73 38 27 0 67
-51 67 -86 0 -33 -36 -74 -66 -74 -8 0 -14 -7 -14 -16 0 -17 29 -12 68 14 63
41 53 134 -18 176 -33 19 -36 19 -75 2z"/>
<path d="M1707 858 c-42 -93 -43 -98 -23 -98 8 0 20 16 26 35 l11 35 42 -21
c23 -12 43 -23 45 -24 2 -2 -4 -18 -13 -35 -12 -23 -14 -35 -6 -43 6 -6 12 -9
14 -6 9 10 77 167 77 178 0 24 -21 9 -37 -26 -10 -21 -18 -39 -19 -41 -3 -5
-84 37 -84 44 0 2 7 21 15 41 18 43 18 43 2 43 -7 0 -30 -37 -50 -82z"/>
<path d="M3163 880 c-25 -10 -31 -30 -9 -30 17 0 68 -123 60 -145 -8 -19 13
-19 46 0 24 14 24 15 5 20 -14 4 -28 29 -46 76 -15 38 -23 69 -18 69 5 0 9 5
9 10 0 12 -17 12 -47 0z"/>
<path d="M2854 786 c-26 -19 -15 -28 23 -17 44 13 76 -6 87 -52 14 -55 -3 -85
-54 -93 -50 -8 -53 -24 -4 -24 44 0 94 45 94 85 0 37 -25 92 -48 104 -29 15
-75 14 -98 -3z"/>
<path d="M2225 782 c-13 -13 -2 -21 36 -27 l41 -7 -6 -62 c-4 -33 -10 -71 -12
-82 -4 -13 0 -23 9 -27 12 -4 17 10 26 69 13 87 14 124 4 124 -5 1 -27 5 -50
9 -23 5 -45 6 -48 3z"/>
<path d="M2510 752 c0 -23 79 -187 90 -187 9 0 80 171 80 193 0 1 -6 2 -14 2
-8 0 -19 -13 -25 -30 -8 -26 -15 -30 -45 -30 -29 0 -38 5 -51 30 -14 28 -35
41 -35 22z m110 -81 c0 -5 -5 -22 -11 -38 -11 -30 -19 -24 -33 25 -6 19 -4 22
18 22 14 0 26 -4 26 -9z"/>
</g>
</svg>
